<svg width="139.63" height="139.63" xmlns="http://www.w3.org/2000/svg" xmlns:svg="http://www.w3.org/2000/svg">
 <metadata id="metadata8">image/svg+xml</metadata>
 <defs>
  <clipPath id="clipPath18" clipPathUnits="userSpaceOnUse">
   <path id="path20" d="m275.945,28.6719l-29.961,9.9179c0,0 3.821,151.6402 -50.867,162.2582c-36.062,41.785 5.551,1784.892 136.559,5.972c0,0 -44.84,-22.515 -53.328,-60.75c-8.485,-38.261 -2.403,-117.3981 -2.403,-117.3981z"/>
  </clipPath>
  <clipPath id="clipPath36" clipPathUnits="userSpaceOnUse">
   <path id="path38" d="m292.098,175.105c0,0 260.343,171.469 199.351,527.575c-58.738,258.718 -197.418,343.77 -212.32,376.24c-16.406,22.98 -32.93,63.71 -32.93,63.71l11.074,-720.864c0,0 -22.906,-220.11 34.825,-246.661z"/>
  </clipPath>
  <clipPath id="clipPath52" clipPathUnits="userSpaceOnUse">
   <path id="path54" d="m230.742,165.523c0,0 -244.2108,166.598 -230.15997,460.543c14.05467,293.954 186.53897,438.484 220.13297,464.704c21.719,23.15 22.617,32.07 24.297,54.91c15.222,-32.7 12.691,-488.422 14.304,-541.688c6.258,-207.351 -11.484,-399.328 -28.574,-438.469z"/>
  </clipPath>
 </defs>
 <g transform="translate(38.52,0)">
  <g transform="matrix(1.25,0,0,-1.25,0,143.2125) " id="g10">
   <g transform="scale(0.10000000149011612) " id="g12">
    <g id="g14">
     <g clip-path="url(#clipPath18)" id="g16">
      <path fill="#ffffff" fill-rule="nonzero" id="path30" d="m275.945,28.6719l-29.961,9.9179c0,0 3.821,151.6402 -50.867,162.2582c-36.062,41.785 5.551,1784.892 136.559,5.972c0,0 -44.84,-22.515 -53.328,-60.75c-8.485,-38.261 -2.403,-117.3981 -2.403,-117.3981"/>
     </g>
    </g>
    <g id="g32">
     <g clip-path="url(#clipPath36)" id="g34">
      <path fill="#e3e3e3" fill-rule="nonzero" id="path46" d="m292.098,175.105c0,0 260.343,171.469 199.351,527.575c-58.738,258.718 -197.418,343.77 -212.32,376.24c-16.406,22.98 -32.93,63.71 -32.93,63.71l11.074,-720.864c0,0 -22.906,-220.11 34.825,-246.661"/>
     </g>
    </g>
    <g id="g48">
     <g clip-path="url(#clipPath52)" id="g50">
      <path fill="#f5f5f5" fill-rule="nonzero" id="path62" d="m230.742,165.523c0,0 -244.2108,166.598 -230.15997,460.543c14.05467,293.954 186.53897,438.484 220.13297,464.704c21.719,23.15 22.617,32.07 24.297,54.91c15.222,-32.7 12.691,-488.422 14.304,-541.688c6.258,-207.351 -11.484,-399.328 -28.574,-438.469"/>
     </g>
    </g>
   </g>
  </g>
 </g>
</svg>