<svg width="800" height="800" xmlns="http://www.w3.org/2000/svg" xmlns:svg="http://www.w3.org/2000/svg"><g transform="matrix(1.8,0,0,1.8,-473.09629,-151.18724)"><path id="path3014" d="m666.5219,256.3817c30.58056,8.88558 30.58056,8.88558 30.58056,8.88558l-28.51656,8.37201l19.51099,8.17009l-20.54125,3.8411l-1.03374,-29.26878z" fill="#f5f5f5"/><path id="path3057-6" d="m379.68388,199.42648c-4.10926,52.20936 58.43778,135.9163 120.24988,142.56291c24.153,2.59715 59.60196,-20.22121 57.75649,-44.44323c-5.14714,-67.55681 -109.42627,-70.95147 -178.00637,-98.11968z" fill="#f5f5f5"/><path id="path3055" d="m269.8605,392.64957c67.67888,75.43641 189.56586,109.43536 278.21136,72.92461c73.95409,-30.45975 121.90526,-128.7228 121.92914,-206.65506c0.0163,-53.37224 -53.43658,-114.07539 -132.56638,-89.05101c-35.54455,11.24078 -62.66397,46.94706 -85.57114,79.38053c-51.18227,68.1237 -96.56896,113.89003 -182.00298,143.40093z" fill="#f5f5f5"/><path id="path3057" d="m320.77195,240.21923c4.30612,52.1935 79.45291,124.80164 141.53158,121.46206c24.25715,-1.30495 55.59365,-29.50654 49.89239,-53.12026c-15.90119,-65.86021 -119.37777,-52.50874 -191.42397,-68.3418z" fill="#f5f5f5"/><path id="path3095" d="m496.84754,227.96198c-10.36999,-0.36057 -22.4411,0.92855 -30.3887,-8.66162c-6.9977,-7.66674 -12.69186,-17.21086 -16.3641,-27.61311c-0.63688,-7.55618 -0.64379,-16.78667 -7.54473,-20.37677c-7.9648,-5.05478 -17.37554,-4.32732 -26.08455,-5.72658c-16.43477,-1.09317 -32.0931,5.75898 -47.41216,11.82065c-7.27266,2.85452 -16.21291,2.3303 -21.54489,-4.95415c-4.15354,-4.76447 -6.67789,-10.93486 -9.29982,-16.84153c-3.83989,-3.82367 -4.0705,-9.7639 1.11305,-11.34888c3.19135,-2.16378 6.38271,-4.32755 9.57406,-6.49132c4.90308,10.61164 8.63358,24.24694 18.97309,28.97523c10.6148,2.68723 20.45991,-4.52723 30.46652,-7.44993c14.18591,-5.3972 29.34541,-6.20962 43.99668,-3.34773c8.43616,0.88663 18.64523,4.54479 21.19572,15.42017c0.74601,9.43048 2.44593,18.61605 8.08503,25.69791c5.33569,9.58312 13.16015,18.71783 23.43171,19.11175c3.39992,1.33374 14.52609,-1.39066 13.30116,1.87853c-3.83269,3.30246 -7.66538,6.60492 -11.49807,9.90738z" fill="#f5f5f5"/><path id="path3097" d="m489.90021,222.98726c-7.51971,-4.90359 -16.71844,-9.22969 -19.91648,-18.2563c-2.11832,-6.04415 -4.29431,-12.1555 -5.35477,-18.47912c-0.92927,-8.59368 0.0256,-17.25397 -0.40295,-25.86708c1.38582,-5.49621 -2.17858,-10.55272 -7.68348,-11.56743c-7.21507,-2.10321 -14.84704,-1.82663 -22.24465,-2.84536c-6.80007,-0.37061 -14.91553,1.10883 -20.30903,-4.00571c-4.09066,-4.87853 -5.86768,-11.19245 -7.89479,-17.10313c-0.46476,-3.08726 3.63491,-3.21074 5.41702,-5.03626c3.25192,-2.0633 6.50383,-4.12659 9.75575,-6.18989c0.70572,5.75103 3.22801,11.11892 5.4821,16.39099c3.11114,5.53909 9.92565,5.80339 15.54728,5.66422c8.8151,0.56086 17.76836,0.73464 26.40085,2.69296c5.44138,1.2713 11.85407,5.1236 11.28172,11.45835c0.36689,13.12466 -1.80668,26.73482 2.70554,39.39058c1.86469,5.66123 3.69455,11.77212 8.70159,15.53075c3.75441,3.4807 8.47581,5.76731 12.65971,8.54496c-3.4282,2.99846 -7.80274,5.25732 -11.59256,7.98713c-0.85097,0.56342 -1.70193,1.12686 -2.55285,1.69034z" fill="#f5f5f5"/></g></svg>