<?xml version="1.0" ?>
<svg id="svg3120" version="1.1" viewBox="0 0 106.83 106.83" width="106.83px" height="106.83px" xmlns="http://www.w3.org/2000/svg">
	<g id="layer6" transform="translate(-280.527,-443.085)">
		<path fill="#f5f5f5" d="M292.092,548.944h52.146   c0,0-11.566-26.269-8.626-50.381c2.941-24.112,21.956-35.091,32.738-36.267c10.781-1.177,16.663,5.489,16.663,5.489l2.353-3.529   c0,0-15.487-15.683-35.091-13.918c-19.604,1.764-33.13,14.702-41.559,30.385c-8.43,15.684-13.331,26.661-16.663,43.128   S292.092,548.944,292.092,548.944z" id="path3966"/>
		<path fill="#f5f5f5" d="M281.703,522.675l10.194,0.784l-1.765,10.193l-9.605-1.176   L281.703,522.675z" id="path3968"/>
		<path fill="#f5f5f5" d="M297.778,501.111l2.745-7.645l-9.018-3.529l-2.94,8.233L297.778,501.111z" id="path3970"/>
		<path fill="#f5f5f5" d="M310.52,474.842l5.293-6.272l-6.861-4.509l-5.489,6.076L310.52,474.842z" id="path3972"/>
		<path fill="#f5f5f5" d="M324.438,450.534l4.705,5.685l6.469-3.725l-4.705-5.293L324.438,450.534z" id="path3974"/>
		<path fill="#f5f5f5" d="M347.375,444.065l1.176,5.686l8.038-0.196l-0.785-5.097L347.375,444.065z" id="path3976"/>
		<path fill="#f5f5f5" d="M374.624,450.142l-0.196,3.528l5.489,2.94l1.176-1.764L374.624,450.142z" id="path3978"/>
		<path fill="#f5f5f5" d="M373.447,465.237v2.94l5.293,0.588v-2.353L373.447,465.237z" id="path3980"/>
		<path fill="#f5f5f5" d="M356.589,467.785l2.548,4.704l3.725-2.94l-0.784-3.137L356.589,467.785z" id="path3982"/>
		<path fill="#f5f5f5" d="M348.55,473.863l3.921,5.881l-2.353,4.116l-5.685-6.272L348.55,473.863z" id="path3984"/>
		<path fill="#f5f5f5" d="M340.71,490.133l-2.549,5.097l6.665,5.686l1.568-6.47L340.71,490.133z" id="path3986"/>
		<path fill="#f5f5f5" d="M337.965,507.972l-0.392,6.861l8.233,3.529l-0.392-6.47L337.965,507.972z" id="path3988"/>
		<path fill="#f5f5f5" d="M340.317,532.281l1.961,7.058l10.389,0.588l-3.725-7.646H340.317z" id="path3990"/>
	</g>
</svg>