<svg xmlns="http://www.w3.org/2000/svg" width="96.75" height="96.75">
  <g transform="translate(-59.847143,-293.31505)">
    <path d="m 59.847143,374.6913 21,0 1.5,-18.00125 -19.50125,-4.49875 -2.99875,22.5 z" fill="#f5f5f5"/>
    <path d="m 63.597143,349.19005 18.75,4.5 4.5,-15.75 -15.75,-8.24875 -7.5,19.49875 z" fill="#f5f5f5"/>
    <path d="m 72.595893,326.69005 15,8.25 12.00125,-8.25 -11.25,-12.75 -15.75125,12.75 z" fill="#f5f5f5"/>
    <path d="m 156.59589,374.6913 -20.99875,0 -1.50125,-18.00125 19.50125,-4.49875 2.99875,22.5 z" fill="#f5f5f5"/>
    <path d="m 152.84589,349.19005 -18.75,4.5 -4.49875,-15.75 15.74875,-8.24875 7.5,19.49875 z" fill="#f5f5f5"/>
    <path d="m 143.84589,326.69005 -15,8.25 -11.99875,-8.25 11.25,-12.75 15.74875,12.75 z" fill="#f5f5f5"/>
    <path d="m 92.097143,311.69005 11.249997,13.5 10.49875,0 9.75125,-13.5 -9.75125,-3 -10.7625,0 -10.986247,3 z" fill="#f5f5f5"/>
  </g>
</svg>