<svg xmlns="http://www.w3.org/2000/svg" version="1.1" width="200" height="200" viewBox="0 0 200 200"><g transform="translate(0.935, 1.21)"><polygon style="fill: #f5f5f5;fill-rule:evenodd;" clip-rule="evenodd" points="153.5,130.41 40.38,197.58 186.849,187.641 198.13,39.95 " id="polygon3282"/><polygon style="fill: #ededed;fill-rule:evenodd;" clip-rule="evenodd" points="187.089,187.54 174.5,100.65 140.209,145.93 " id="polygon3293"/><polygon style="fill: #ededed;fill-rule:evenodd;" clip-rule="evenodd" points="187.259,187.54 95.03,180.3 40.87,197.391 " id="polygon3304"/><polygon style="fill: #f5f5f5;fill-rule:evenodd;" clip-rule="evenodd" points="41,197.41 64.04,121.93 13.34,132.771 " id="polygon3319"/><polygon style="fill: #f5f5f5;fill-rule:evenodd;" clip-rule="evenodd" points="140.2,146.18 119,63.14 58.33,120.01 " id="polygon3334"/><polygon style="fill: #f5f5f5;fill-rule:evenodd;" clip-rule="evenodd" points="193.32,64.31 135.97,17.47 120,69.1 " id="polygon3349"/><polygon style="fill: #f5f5f5;fill-rule:evenodd;" clip-rule="evenodd" points="166.5,0.77 132.77,19.41 111.49,0.52 " id="polygon3362"/><polygon style="fill: #f5f5f5;fill-rule:evenodd;" clip-rule="evenodd" points="0,158.09 14.13,132.32 2.7,101.62 " id="polygon3375"/><path style="fill:#ffffff;fill-rule:evenodd" clip-rule="evenodd" d="m 1.94,100.65 11.5,32.62 49.97,-11.211 57.05,-53.02 L 136.56,17.9 111.209,0 68.109,16.13 C 54.53,28.76 28.18,53.75 27.23,54.22 26.29,54.7 9.83,85.81 1.94,100.65 z" id="path3377"/><path style="fill: #f5f5f5;fill-rule:evenodd;" clip-rule="evenodd" d="m 42.32,42.05 c 29.43,-29.18 67.37,-46.42 81.93,-31.73 14.551,14.69 -0.88,50.39 -30.31,79.56 -29.43,29.17 -66.9,47.36 -81.45,32.67 -14.56,-14.68 0.4,-51.33 29.83,-80.5 z" id="path3400"/><path style="fill: #e6e6e6;fill-rule:evenodd;" clip-rule="evenodd" d="m 41,197.38 22.86,-75.72 75.92,24.39 C 112.33,171.79 81.8,193.55 41,197.38 z" id="path3413"/><path style="fill: #e6e6e6;fill-rule:evenodd;" clip-rule="evenodd" d="m 120.56,68.89 19.49,77.2 C 162.98,121.98 183.56,96.06 193.639,64 l -73.079,4.89 z" id="path3424"/><path style="fill: #e6e6e6;fill-rule:evenodd;" clip-rule="evenodd" d="m 193.44,64.39 c 7.8,-23.54 9.6,-57.31 -27.181,-63.58 l -30.18,16.67 57.361,46.91 z" id="path3435"/><path style="fill: #e6e6e6;fill-rule:evenodd;" clip-rule="evenodd" d="m 0,157.75 c 1.08,38.851 29.11,39.43 41.05,39.771 L 13.47,133.11 0,157.75 z" id="path3437"/><path style="fill: #ededed;fill-rule:evenodd;" clip-rule="evenodd" d="m 120.669,69.01 c 17.62,10.83 53.131,32.58 53.851,32.98 1.119,0.63 15.31,-23.93 18.53,-37.81 l -72.381,4.83 z" id="path3448"/><path style="fill: #ededed;fill-rule:evenodd;" clip-rule="evenodd" d="m 63.83,121.66 30.56,58.96 c 18.07,-9.8 32.22,-21.74 45.18,-34.53 L 63.83,121.66 z" id="path3459"/><path style="fill: #ededed;fill-rule:evenodd;" clip-rule="evenodd" d="m 13.35,133.19 -4.33,51.56 c 8.17,11.16 19.41,12.13 31.2,11.26 -8.53,-21.23 -25.57,-63.68 -26.87,-62.82 z" id="path3472"/><path style="fill: #ededed;fill-rule:evenodd;" clip-rule="evenodd" d="m 135.9,17.61 60.71,8.52 C 193.37,12.4 183.42,3.54 166.46,0.77 L 135.9,17.61 z" id="path3485"/></g></svg>