<svg viewBox="0 0 49.49 49.49" width="49.49" height="49.49" xmlns="http://www.w3.org/2000/svg"><path d="m49.48892,13.70842c-0.00292,-0.49775 -0.00842,-0.99525 -0.02217,-1.49359c-0.029,-1.084 -0.09308,-2.17783 -0.28575,-3.25025c-0.1955,-1.08908 -0.51508,-2.10175 -1.01875,-3.09108c-0.49442,-0.97158 -1.14075,-1.86067 -1.91175,-2.63167c-0.77083,-0.771 -1.65992,-1.41725 -2.63192,-1.91191c-0.9885,-0.50309 -2.00133,-0.82259 -3.08941,-1.01809c-1.073,-0.19325 -2.16684,-0.25691 -3.25167,-0.28625c-0.49808,-0.0135 -0.99567,-0.01916 -1.49358,-0.02225c-0.591,-0.00333 -1.18242,-0.00333 -1.77325,-0.00333l-13.10134,0l-5.42758,0c-0.59142,0 -1.18217,0 -1.773,0.00342c-0.49808,0.00308 -0.99625,0.00875 -1.49358,0.02225c-0.27117,0.00733 -0.54292,0.01683 -0.81484,0.02991c-0.81566,0.03934 -1.63258,0.11142 -2.43691,0.25634c-0.81609,0.14666 -1.58992,0.363 -2.34275,0.67425c-0.25092,0.10366 -0.49959,0.218 -0.74675,0.34375c-0.729,0.371 -1.4115,0.82725 -2.03225,1.35741c-0.20692,0.17675 -0.407,0.36167 -0.59967,0.55442c-0.77117,0.771 -1.4175,1.66008 -1.91192,2.63167c-0.50366,0.98933 -0.82283,2.002 -1.0185,3.09108c-0.1925,1.07242 -0.2565,2.16625 -0.28566,3.25025c-0.01367,0.49833 -0.01942,0.99583 -0.02267,1.49358c-0.00375,0.59117 -0.00325,1.18242 -0.00325,1.77342l0,8.06825l0,10.46042c0,0.59158 -0.00058,1.18225 0.00325,1.77383c0.00325,0.49775 0.009,0.99525 0.02267,1.49275c0.02916,1.08458 0.09308,2.17867 0.28566,3.25058c0.19567,1.08875 0.51484,2.10234 1.0185,3.09142c0.49442,0.97183 1.14075,1.86067 1.91192,2.63133c0.77058,0.77134 1.65992,1.4175 2.632,1.9125c0.98858,0.50317 2.00133,0.82225 3.08967,1.01775c1.07233,0.193 2.167,0.25717 3.25158,0.28617c0.49733,0.01325 0.9955,0.01917 1.49358,0.022c0.59084,0.00425 1.18159,0.00367 1.773,0.00367l18.52884,0c0.59083,0 1.18225,0.00058 1.77316,-0.00367c0.49792,-0.00283 0.9955,-0.00875 1.49359,-0.022c1.08483,-0.029 2.17866,-0.09325 3.25166,-0.28617c1.08809,-0.1955 2.10092,-0.51466 3.08942,-1.01775c0.972,-0.49491 1.86108,-1.14116 2.63192,-1.9125c0.771,-0.77075 1.41741,-1.6595 1.91175,-2.63133c0.50366,-0.98908 0.82325,-2.00258 1.01875,-3.09142c0.19266,-1.07191 0.25675,-2.166 0.28575,-3.25058c0.01366,-0.4975 0.01916,-0.99492 0.02216,-1.49275c0.00384,-0.59158 0.0035,-1.18225 0.0035,-1.77383l0,-18.52867c0.00009,-0.591 0.00034,-1.18225 -0.00341,-1.77333m-10.27175,16.84216c-0.00117,-0.0015 -0.00225,-0.00258 -0.0035,-0.004c0.05475,-0.18633 0.11125,-0.3715 0.15916,-0.5625c2.05417,-8.18408 -2.95925,-17.85991 -11.443,-22.9545c3.71775,5.03992 5.36159,11.14442 3.90109,16.48292c-0.13025,0.47617 -0.28684,0.93317 -0.45992,1.37733c-0.18783,-0.12341 -0.4245,-0.2635 -0.74233,-0.43875c0,0 -8.43909,-5.21058 -17.58567,-14.42683c-0.24,-0.24192 4.87733,7.31417 10.68492,13.44992c-2.73617,-1.53559 -10.3615,-7.08367 -15.18884,-11.50192c0.59309,0.98908 1.2985,1.9415 2.07392,2.85842c4.03125,5.11241 9.2885,11.42033 15.58692,16.26408c-4.42534,2.70817 -10.67842,2.91875 -16.90434,0.00283c-1.53991,-0.72166 -2.98758,-1.59241 -4.32766,-2.58175c2.63541,4.21542 6.69433,7.85242 11.63441,9.97567c5.89125,2.53175 11.74967,2.36008 16.113,0.0415l-0.00341,0.005c0.01991,-0.01258 0.04525,-0.02633 0.06591,-0.03908c0.17917,-0.09634 0.357,-0.19442 0.53092,-0.298c2.09642,-1.08817 6.23725,-2.19217 8.45983,2.13233c0.54434,1.05833 1.701,-4.55033 -2.55141,-9.78267z" fill-rule="evenodd" fill="#f5f5f5"/></svg>