<?xml version="1.0" standalone="no"?>
<!DOCTYPE svg PUBLIC "-//W3C//DTD SVG 20010904//EN"
 "http://www.w3.org/TR/2001/REC-SVG-20010904/DTD/svg10.dtd">
<svg version="1.0" xmlns="http://www.w3.org/2000/svg"
 width="700.000000pt" height="700.000000pt" viewBox="0 0 700.000000 700.000000"
 preserveAspectRatio="xMidYMid meet">
<metadata>
Created by potrace 1.11, written by Peter Selinger 2001-2013
</metadata>
<g transform="translate(0.000000,700.000000) scale(0.100000,-0.100000)"
fill="#000000" stroke="none">
<path d="M0 4900 l0 -2100 151 0 151 0 -5 -22 c-29 -121 -48 -228 -53 -301
l-7 -87 27 0 c25 0 26 -2 26 -60 0 -57 -1 -60 -25 -60 -23 0 -25 -4 -25 -43 0
-130 68 -383 145 -542 63 -130 58 -126 100 -85 19 18 35 39 35 46 0 6 -20 54
-44 105 -140 294 -164 660 -67 987 l21 70 61 7 c33 4 63 5 65 2 3 -3 0 -15 -6
-27 -6 -12 -22 -50 -36 -86 l-24 -64 58 0 58 0 32 78 c47 116 39 110 183 127
69 8 153 19 186 23 l61 8 -39 -57 c-50 -72 -93 -167 -121 -266 -19 -65 -23
-101 -22 -223 1 -127 4 -156 27 -233 117 -385 444 -630 837 -630 393 0 720
246 837 630 23 77 26 106 27 233 1 122 -3 158 -22 223 -70 244 -225 439 -436
550 -41 22 -46 27 -30 33 103 36 273 107 386 161 l139 66 62 -42 62 -42 -85
83 c-47 46 -122 110 -168 142 l-84 59 38 38 37 38 39 -21 c21 -12 76 -51 124
-87 47 -36 92 -70 99 -75 23 -17 254 148 380 270 179 174 309 395 331 563 4
28 10 51 13 51 4 0 12 -28 18 -62 16 -96 67 -215 134 -317 106 -161 317 -360
507 -480 28 -18 52 -35 52 -38 0 -3 -34 -42 -76 -86 -167 -180 -298 -424 -354
-662 -30 -125 -40 -216 -40 -363 -1 -231 47 -446 145 -647 63 -130 58 -126
100 -85 19 18 35 40 35 47 0 8 -16 45 -35 84 -44 86 -88 217 -111 329 -26 121
-26 422 -1 540 57 268 177 502 359 694 l83 89 63 -32 c34 -17 62 -35 62 -41 0
-5 -10 -16 -21 -24 -21 -14 -20 -15 27 -44 l48 -30 30 25 c33 28 23 30 181
-35 66 -27 145 -58 175 -69 l55 -20 -65 -33 c-92 -46 -175 -107 -246 -181 -77
-81 -117 -140 -164 -242 -50 -108 -70 -190 -77 -317 -27 -491 372 -910 867
-910 585 0 1008 576 828 1130 -29 91 -89 206 -138 269 l-42 53 38 -6 c95 -15
293 -37 454 -51 102 -9 177 -20 181 -27 15 -24 59 -208 70 -293 17 -130 6
-343 -25 -477 -96 -416 -363 -756 -746 -948 -193 -97 -395 -143 -625 -144
-221 0 -436 49 -615 139 l-67 34 -39 -40 c-44 -45 -47 -40 56 -93 101 -52 244
-102 365 -127 93 -20 139 -24 305 -24 167 0 211 3 305 23 618 133 1083 616
1190 1236 8 49 15 111 15 137 0 46 -2 49 -25 49 -24 0 -25 3 -25 60 0 57 1 60
25 60 24 0 25 3 25 53 -1 28 -7 85 -14 125 l-12 72 63 0 63 0 -24 63 c-13 34
-27 70 -31 80 -7 15 2 17 94 17 l101 0 0 2100 0 2100 -3500 0 -3500 0 0 -2100z
m6150 -1348 c134 -96 307 -282 377 -409 l26 -45 -38 -38 -38 -39 -54 78 c-113
165 -237 290 -416 416 l-68 48 37 38 38 39 35 -21 c20 -12 65 -42 101 -67z"/>
<path d="M3015 3060 l-38 -39 40 -88 c97 -211 128 -356 128 -598 0 -151 -4
-197 -24 -285 -95 -430 -361 -774 -750 -970 -195 -98 -394 -143 -626 -144
-221 0 -436 49 -615 139 l-67 34 -39 -40 c-45 -46 -49 -39 66 -98 101 -52 223
-94 355 -122 95 -21 137 -24 310 -24 221 1 307 14 488 76 450 154 823 538 956
985 110 371 76 790 -90 1114 -56 109 -50 105 -94 60z"/>
<path d="M3890 1266 c-35 -32 -82 -36 -471 -36 l-389 0 0 -61 0 -60 408 3 407
3 67 32 c68 32 108 75 108 116 0 14 -9 17 -58 17 -35 0 -63 -5 -72 -14z"/>
</g>
</svg>
