<svg xmlns="http://www.w3.org/2000/svg" xmlns:svg="http://www.w3.org/2000/svg" width="796.1" height="70.502" viewBox="0 0 796.1 70.502"><g id="text" fill-rule="evenodd" fill="#f5f5f5"><path d="M 506.8 66.4 L 506.8 62.2 A 3.32 3.32 0 0 1 506.823 61.791 Q 506.973 60.593 508.1 61.2 A 42.997 42.997 0 0 0 510.828 62.417 Q 512.141 62.945 513.337 63.306 A 22.741 22.741 0 0 0 514.4 63.6 Q 517.2 64.3 520.2 64.3 Q 526.8 64.3 532.1 60 A 16.411 16.411 0 0 0 535.97 55.3 A 14.815 14.815 0 0 0 537.7 48.4 A 20.301 20.301 0 0 0 536.824 42.161 Q 534.697 35.578 527.413 33.778 A 25.976 25.976 0 0 0 521.2 33.1 A 26.651 26.651 0 0 0 518.208 33.276 A 32.798 32.798 0 0 0 516.3 33.55 Q 513.7 34 510.1 35.2 A 3.164 3.164 0 0 1 509.724 35.28 Q 509.171 35.361 508.733 35.195 A 1.626 1.626 0 0 1 508.3 34.95 A 1.767 1.767 0 0 1 507.665 33.92 A 2.776 2.776 0 0 1 507.6 33.3 L 508.2 3.9 A 19.718 19.718 0 0 1 508.212 3.174 Q 508.265 1.741 508.548 1.453 A 0.333 0.333 0 0 1 508.55 1.45 A 0.664 0.664 0 0 1 508.782 1.314 Q 509.328 1.104 510.849 1.1 A 22.501 22.501 0 0 1 510.9 1.1 L 539.9 1.1 Q 540.926 1.1 541.142 1.973 A 2.201 2.201 0 0 1 541.2 2.5 L 541.2 5.8 A 2.187 2.187 0 0 1 541.14 6.337 Q 540.963 7.035 540.262 7.169 A 1.933 1.933 0 0 1 539.9 7.2 L 514.8 7.2 Q 514.731 11.532 514.639 15.083 A 492.836 492.836 0 0 1 514.55 18.15 A 556.225 556.225 0 0 0 514.428 22.478 Q 514.374 24.688 514.329 27.14 A 947.069 947.069 0 0 0 514.3 28.8 A 26.952 26.952 0 0 1 522.068 27.248 A 31.416 31.416 0 0 1 523.8 27.2 Q 531.9 27.2 538.1 32.6 A 18.705 18.705 0 0 1 544.386 46.2 A 22.958 22.958 0 0 1 544.4 47 A 24.918 24.918 0 0 1 542.846 55.942 A 22.383 22.383 0 0 1 537.3 64.2 Q 529.8 70.4 520.2 70.4 A 34.758 34.758 0 0 1 517.133 70.258 A 44.887 44.887 0 0 1 514.55 69.95 A 27.513 27.513 0 0 1 511.008 69.175 A 35.377 35.377 0 0 1 508.1 68.2 Q 506.86 67.723 506.803 66.518 A 2.494 2.494 0 0 1 506.8 66.4 Z M 143 69.7 L 106 69.7 A 33.593 33.593 0 0 1 105.528 69.697 Q 105.019 69.69 104.657 69.666 A 8.262 8.262 0 0 1 104.45 69.65 A 2.17 2.17 0 0 1 104.164 69.606 Q 103.83 69.53 103.65 69.35 A 0.849 0.849 0 0 1 103.48 69.098 Q 103.427 68.98 103.393 68.833 A 2.175 2.175 0 0 1 103.35 68.55 Q 103.3 68 103.3 66.9 L 103.3 64.7 A 3.375 3.375 0 0 1 103.393 63.882 A 2.252 2.252 0 0 1 104.1 62.7 L 119.2 47.1 A 132.987 132.987 0 0 0 125.435 39.986 Q 135.201 27.931 135.201 20.518 A 11.172 11.172 0 0 0 135.2 20.4 Q 135.3 13.8 132.3 10.3 A 11.696 11.696 0 0 0 125.779 6.634 A 16.835 16.835 0 0 0 122.9 6.3 A 24.499 24.499 0 0 0 114.06 8.015 A 33.593 33.593 0 0 0 108.5 10.8 Q 107.2 11.5 106.9 10.2 L 106.3 6.9 A 3.87 3.87 0 0 1 106.258 6.592 Q 106.129 5.231 107.177 4.752 A 2.168 2.168 0 0 1 107.3 4.7 A 44.325 44.325 0 0 1 111.465 2.673 A 34.427 34.427 0 0 1 115 1.4 Q 118.7 0.3 122.7 0.3 A 22.214 22.214 0 0 1 130.339 1.577 A 19.9 19.9 0 0 1 136.4 5.1 Q 142.7 10.3 142.7 19.9 A 18.943 18.943 0 0 1 142.301 23.661 Q 141.956 25.363 141.313 27.197 A 33.031 33.031 0 0 1 141 28.05 A 32.262 32.262 0 0 1 139.13 32.049 Q 137.681 34.688 135.6 37.5 Q 132.469 41.436 130.379 43.972 A 222.566 222.566 0 0 1 129.9 44.55 Q 127.81 47.068 124.455 50.715 A 303.59 303.59 0 0 1 124.1 51.1 Q 121.114 54.239 119.095 56.323 A 336.745 336.745 0 0 1 117.95 57.5 Q 115.937 59.558 112.764 62.736 A 1455.666 1455.666 0 0 1 112 63.5 L 142.9 63.5 A 2.55 2.55 0 0 1 143.439 63.589 Q 144.371 63.86 144.301 64.88 A 2.236 2.236 0 0 1 144.3 64.9 L 144.3 68.4 Q 144.3 69.432 143.481 69.645 A 1.915 1.915 0 0 1 143 69.7 Z M 406.2 67.5 L 406.4 63.5 A 1.115 1.115 0 0 1 406.451 63.154 Q 406.556 62.831 406.879 62.661 A 1.145 1.145 0 0 1 406.9 62.65 A 1.338 1.338 0 0 1 407.213 62.538 Q 407.528 62.469 407.844 62.58 A 1.354 1.354 0 0 1 407.9 62.6 Q 410.1 63.4 412.35 63.85 Q 414.6 64.3 416.7 64.3 A 18.33 18.33 0 0 0 430.878 57.919 A 25.887 25.887 0 0 0 432.8 55.5 Q 437.253 48.516 438.046 38.025 A 60.502 60.502 0 0 0 438.2 34.9 Q 436.2 38.7 432.9 41.3 A 15.752 15.752 0 0 1 423.612 44.68 A 19.85 19.85 0 0 1 422.7 44.7 Q 416.1 44.7 410.9 40.2 A 21.004 21.004 0 0 1 403.646 25.877 A 29.515 29.515 0 0 1 403.5 22.9 A 26.326 26.326 0 0 1 404.786 14.52 A 22.426 22.426 0 0 1 409.4 6.6 A 21.755 21.755 0 0 1 414.499 2.389 A 17.337 17.337 0 0 1 423.4 0 A 18.222 18.222 0 0 1 435.722 4.779 A 25.153 25.153 0 0 1 437.5 6.5 Q 444.618 14.388 444.982 31.526 A 87.293 87.293 0 0 1 445 32.9 Q 445 46.464 440.135 55.838 A 34.359 34.359 0 0 1 437.8 59.7 A 31.715 31.715 0 0 1 430.986 66.176 A 24.328 24.328 0 0 1 416.9 70.5 A 25.224 25.224 0 0 1 415.377 70.451 Q 414.025 70.369 412.4 70.15 Q 409.8 69.8 407.5 69.1 Q 406.066 68.909 406.186 67.622 A 2.473 2.473 0 0 1 406.2 67.5 Z M 96.1 52 Q 96.1 56.6 94.3 60.2 Q 92.5 63.8 89 66.1 A 25.013 25.013 0 0 1 83.63 68.789 A 28.843 28.843 0 0 1 82.25 69.25 A 26.114 26.114 0 0 1 77.007 70.264 A 32.385 32.385 0 0 1 74 70.4 A 30.435 30.435 0 0 1 69.459 70.076 A 23.823 23.823 0 0 1 65.85 69.25 Q 62.2 68.1 59 66.1 Q 55.7 63.8 53.85 60.2 A 16.719 16.719 0 0 1 52.146 54.509 A 20.962 20.962 0 0 1 52 52 A 17.884 17.884 0 0 1 52.819 46.473 A 14.72 14.72 0 0 1 56.6 40.4 A 20.042 20.042 0 0 1 59.834 37.752 Q 62.975 35.65 67.6 33.9 A 38.712 38.712 0 0 1 61.65 30.182 Q 58.602 27.828 56.768 25.163 A 15.147 15.147 0 0 1 54 16.4 A 13.599 13.599 0 0 1 54.593 12.324 A 11.87 11.87 0 0 1 55.9 9.5 Q 57.8 6.5 61.1 4.2 A 28.098 28.098 0 0 1 64.725 2.177 A 23.435 23.435 0 0 1 66.9 1.3 A 16.459 16.459 0 0 1 69.487 0.653 Q 71.547 0.3 74.1 0.3 A 30.908 30.908 0 0 1 77.261 0.453 Q 78.85 0.617 80.21 0.956 A 16.001 16.001 0 0 1 81.4 1.3 Q 84.4 2.3 87.1 4.2 A 16.082 16.082 0 0 1 91.237 7.89 Q 93.914 11.353 93.997 16.093 A 17.41 17.41 0 0 1 94 16.4 A 14.438 14.438 0 0 1 90.968 25.077 Q 87.635 29.615 80.64 33.649 A 58.512 58.512 0 0 1 80.2 33.9 Q 83.7 35.2 86.65 36.9 Q 88.966 38.235 90.512 39.632 A 13.906 13.906 0 0 1 91.3 40.4 A 14.961 14.961 0 0 1 96.071 50.907 A 20.14 20.14 0 0 1 96.1 52 Z M 746.1 52 Q 746.1 56.6 744.3 60.2 Q 742.5 63.8 739 66.1 A 25.013 25.013 0 0 1 733.63 68.789 A 28.843 28.843 0 0 1 732.25 69.25 A 26.114 26.114 0 0 1 727.007 70.264 A 32.385 32.385 0 0 1 724 70.4 A 30.435 30.435 0 0 1 719.459 70.076 A 23.823 23.823 0 0 1 715.85 69.25 Q 712.2 68.1 709 66.1 Q 705.7 63.8 703.85 60.2 A 16.719 16.719 0 0 1 702.146 54.509 A 20.962 20.962 0 0 1 702 52 A 17.884 17.884 0 0 1 702.819 46.473 A 14.72 14.72 0 0 1 706.6 40.4 A 20.042 20.042 0 0 1 709.834 37.752 Q 712.975 35.65 717.6 33.9 A 38.712 38.712 0 0 1 711.65 30.182 Q 708.602 27.828 706.768 25.163 A 15.147 15.147 0 0 1 704 16.4 A 13.599 13.599 0 0 1 704.593 12.324 A 11.87 11.87 0 0 1 705.9 9.5 Q 707.8 6.5 711.1 4.2 A 28.098 28.098 0 0 1 714.725 2.177 A 23.435 23.435 0 0 1 716.9 1.3 A 16.459 16.459 0 0 1 719.487 0.653 Q 721.547 0.3 724.1 0.3 A 30.908 30.908 0 0 1 727.261 0.453 Q 728.85 0.617 730.21 0.956 A 16.001 16.001 0 0 1 731.4 1.3 Q 734.4 2.3 737.1 4.2 A 16.082 16.082 0 0 1 741.237 7.89 Q 743.914 11.353 743.997 16.093 A 17.41 17.41 0 0 1 744 16.4 A 14.438 14.438 0 0 1 740.968 25.077 Q 737.635 29.615 730.64 33.649 A 58.512 58.512 0 0 1 730.2 33.9 Q 733.7 35.2 736.65 36.9 Q 738.966 38.235 740.512 39.632 A 13.906 13.906 0 0 1 741.3 40.4 A 14.961 14.961 0 0 1 746.071 50.907 A 20.14 20.14 0 0 1 746.1 52 Z M 796.1 52 Q 796.1 56.6 794.3 60.2 Q 792.5 63.8 789 66.1 A 25.013 25.013 0 0 1 783.63 68.789 A 28.843 28.843 0 0 1 782.25 69.25 A 26.114 26.114 0 0 1 777.007 70.264 A 32.385 32.385 0 0 1 774 70.4 A 30.435 30.435 0 0 1 769.459 70.076 A 23.823 23.823 0 0 1 765.85 69.25 Q 762.2 68.1 759 66.1 Q 755.7 63.8 753.85 60.2 A 16.719 16.719 0 0 1 752.146 54.509 A 20.962 20.962 0 0 1 752 52 A 17.884 17.884 0 0 1 752.819 46.473 A 14.72 14.72 0 0 1 756.6 40.4 A 20.042 20.042 0 0 1 759.834 37.752 Q 762.975 35.65 767.6 33.9 A 38.712 38.712 0 0 1 761.65 30.182 Q 758.602 27.828 756.768 25.163 A 15.147 15.147 0 0 1 754 16.4 A 13.599 13.599 0 0 1 754.593 12.324 A 11.87 11.87 0 0 1 755.9 9.5 Q 757.8 6.5 761.1 4.2 A 28.098 28.098 0 0 1 764.725 2.177 A 23.435 23.435 0 0 1 766.9 1.3 A 16.459 16.459 0 0 1 769.487 0.653 Q 771.547 0.3 774.1 0.3 A 30.908 30.908 0 0 1 777.261 0.453 Q 778.85 0.617 780.21 0.956 A 16.001 16.001 0 0 1 781.4 1.3 Q 784.4 2.3 787.1 4.2 A 16.082 16.082 0 0 1 791.237 7.89 Q 793.914 11.353 793.997 16.093 A 17.41 17.41 0 0 1 794 16.4 A 14.438 14.438 0 0 1 790.968 25.077 Q 787.635 29.615 780.64 33.649 A 58.512 58.512 0 0 1 780.2 33.9 Q 783.7 35.2 786.65 36.9 Q 788.966 38.235 790.512 39.632 A 13.906 13.906 0 0 1 791.3 40.4 A 14.961 14.961 0 0 1 796.071 50.907 A 20.14 20.14 0 0 1 796.1 52 Z M 385.7 52.1 L 385.7 68.3 A 2.015 2.015 0 0 1 385.631 68.854 Q 385.453 69.476 384.818 69.641 A 2.063 2.063 0 0 1 384.3 69.7 L 380.3 69.7 A 2.015 2.015 0 0 1 379.746 69.631 Q 379.125 69.453 378.96 68.819 A 2.063 2.063 0 0 1 378.9 68.3 L 378.9 52.1 L 354.5 52.1 A 19.718 19.718 0 0 1 353.774 52.088 Q 352.341 52.035 352.052 51.753 A 0.333 0.333 0 0 1 352.05 51.75 A 0.662 0.662 0 0 1 351.914 51.514 Q 351.7 50.941 351.7 49.3 L 351.7 46.2 A 12.892 12.892 0 0 1 351.705 45.835 Q 351.72 45.296 351.785 45.052 A 0.857 0.857 0 0 1 351.8 45 A 1.59 1.59 0 0 1 351.863 44.845 Q 351.976 44.597 352.237 44.166 A 19.96 19.96 0 0 1 352.4 43.9 L 375.7 2.3 A 15.019 15.019 0 0 1 375.913 1.989 Q 376.347 1.372 376.55 1.25 Q 376.754 1.128 377.524 1.105 A 12.92 12.92 0 0 1 377.9 1.1 L 382.9 1.1 A 19.718 19.718 0 0 1 383.626 1.113 Q 385.059 1.166 385.348 1.448 A 0.333 0.333 0 0 1 385.35 1.45 A 0.662 0.662 0 0 1 385.486 1.687 Q 385.7 2.26 385.7 3.9 L 385.7 46 L 396.6 46 A 2.015 2.015 0 0 1 397.154 46.07 Q 397.775 46.248 397.94 46.882 A 2.063 2.063 0 0 1 398 47.4 L 398 50.7 A 2.015 2.015 0 0 1 397.931 51.254 Q 397.753 51.876 397.118 52.041 A 2.063 2.063 0 0 1 396.6 52.1 L 385.7 52.1 Z M 485.7 52.1 L 485.7 68.3 A 2.015 2.015 0 0 1 485.631 68.854 Q 485.453 69.476 484.818 69.641 A 2.063 2.063 0 0 1 484.3 69.7 L 480.3 69.7 A 2.015 2.015 0 0 1 479.746 69.631 Q 479.125 69.453 478.96 68.819 A 2.063 2.063 0 0 1 478.9 68.3 L 478.9 52.1 L 454.5 52.1 A 19.718 19.718 0 0 1 453.774 52.088 Q 452.341 52.035 452.052 51.753 A 0.333 0.333 0 0 1 452.05 51.75 A 0.662 0.662 0 0 1 451.914 51.514 Q 451.7 50.941 451.7 49.3 L 451.7 46.2 A 12.892 12.892 0 0 1 451.705 45.835 Q 451.72 45.296 451.785 45.052 A 0.857 0.857 0 0 1 451.8 45 A 1.59 1.59 0 0 1 451.863 44.845 Q 451.976 44.597 452.237 44.166 A 19.96 19.96 0 0 1 452.4 43.9 L 475.7 2.3 A 15.019 15.019 0 0 1 475.913 1.989 Q 476.347 1.372 476.55 1.25 Q 476.754 1.128 477.524 1.105 A 12.92 12.92 0 0 1 477.9 1.1 L 482.9 1.1 A 19.718 19.718 0 0 1 483.626 1.113 Q 485.059 1.166 485.348 1.448 A 0.333 0.333 0 0 1 485.35 1.45 A 0.662 0.662 0 0 1 485.486 1.687 Q 485.7 2.26 485.7 3.9 L 485.7 46 L 496.6 46 A 2.015 2.015 0 0 1 497.154 46.07 Q 497.775 46.248 497.94 46.882 A 2.063 2.063 0 0 1 498 47.4 L 498 50.7 A 2.015 2.015 0 0 1 497.931 51.254 Q 497.753 51.876 497.118 52.041 A 2.063 2.063 0 0 1 496.6 52.1 L 485.7 52.1 Z M 48.2 32.1 L 48.2 35.7 A 12.18 12.18 0 0 1 48.191 36.183 Q 48.153 37.138 47.95 37.3 A 0.503 0.503 0 0 1 47.79 37.377 Q 47.406 37.498 46.336 37.5 A 19.311 19.311 0 0 1 46.3 37.5 L 27.7 37.5 L 27.7 58.1 A 13.17 13.17 0 0 1 27.693 58.549 Q 27.663 59.438 27.5 59.6 Q 27.305 59.795 26.069 59.8 A 16.357 16.357 0 0 1 26 59.8 L 22.1 59.8 A 13.17 13.17 0 0 1 21.651 59.793 Q 20.763 59.763 20.6 59.6 Q 20.405 59.406 20.4 58.169 A 16.357 16.357 0 0 1 20.4 58.1 L 20.4 37.5 L 1.9 37.5 Q 0.515 37.5 0.255 37.305 A 0.243 0.243 0 0 1 0.25 37.3 A 0.371 0.371 0 0 1 0.15 37.15 Q 0 36.786 0 35.7 L 0 32.1 A 12.18 12.18 0 0 1 0.009 31.618 Q 0.047 30.663 0.25 30.5 A 0.503 0.503 0 0 1 0.411 30.424 Q 0.794 30.302 1.864 30.3 A 19.311 19.311 0 0 1 1.9 30.3 L 20.4 30.3 L 20.4 9.9 A 12.18 12.18 0 0 1 20.409 9.418 Q 20.447 8.463 20.65 8.3 A 0.503 0.503 0 0 1 20.811 8.224 Q 21.194 8.102 22.264 8.1 A 19.311 19.311 0 0 1 22.3 8.1 L 25.8 8.1 Q 27.185 8.1 27.445 8.296 A 0.243 0.243 0 0 1 27.45 8.3 A 0.371 0.371 0 0 1 27.55 8.451 Q 27.7 8.815 27.7 9.9 L 27.7 30.3 L 46.3 30.3 Q 47.685 30.3 47.945 30.496 A 0.243 0.243 0 0 1 47.95 30.5 A 0.371 0.371 0 0 1 48.05 30.651 Q 48.2 31.015 48.2 32.1 Z M 230.7 3.9 L 230.7 68.3 A 2.015 2.015 0 0 1 230.631 68.854 Q 230.453 69.476 229.818 69.641 A 2.063 2.063 0 0 1 229.3 69.7 L 225.2 69.7 A 2.015 2.015 0 0 1 224.646 69.631 Q 224.025 69.453 223.86 68.819 A 2.063 2.063 0 0 1 223.8 68.3 L 223.8 9.3 Q 220.7 11.9 218 14.2 Q 215.3 16.5 212.3 19.1 A 2.293 2.293 0 0 1 211.987 19.318 Q 211.161 19.79 210.454 19.072 A 2.504 2.504 0 0 1 210.3 18.9 L 208.3 16.5 A 2.065 2.065 0 0 1 208.025 15.764 A 1.96 1.96 0 0 1 208 15.45 Q 208 14.9 208.5 14.5 L 224 1.5 Q 224.331 1.169 224.937 1.112 A 2.814 2.814 0 0 1 225.2 1.1 L 227.9 1.1 A 19.718 19.718 0 0 1 228.626 1.113 Q 230.059 1.166 230.348 1.448 A 0.333 0.333 0 0 1 230.35 1.45 A 0.662 0.662 0 0 1 230.486 1.687 Q 230.7 2.26 230.7 3.9 Z M 630.7 3.9 L 630.7 68.3 A 2.015 2.015 0 0 1 630.631 68.854 Q 630.453 69.476 629.818 69.641 A 2.063 2.063 0 0 1 629.3 69.7 L 625.2 69.7 A 2.015 2.015 0 0 1 624.646 69.631 Q 624.025 69.453 623.86 68.819 A 2.063 2.063 0 0 1 623.8 68.3 L 623.8 9.3 Q 620.7 11.9 618 14.2 Q 615.3 16.5 612.3 19.1 A 2.293 2.293 0 0 1 611.987 19.318 Q 611.161 19.79 610.454 19.072 A 2.504 2.504 0 0 1 610.3 18.9 L 608.3 16.5 A 2.065 2.065 0 0 1 608.025 15.764 A 1.96 1.96 0 0 1 608 15.45 Q 608 14.9 608.5 14.5 L 624 1.5 Q 624.331 1.169 624.937 1.112 A 2.814 2.814 0 0 1 625.2 1.1 L 627.9 1.1 A 19.718 19.718 0 0 1 628.626 1.113 Q 630.059 1.166 630.348 1.448 A 0.333 0.333 0 0 1 630.35 1.45 A 0.662 0.662 0 0 1 630.486 1.687 Q 630.7 2.26 630.7 3.9 Z M 680.7 3.9 L 680.7 68.3 A 2.015 2.015 0 0 1 680.631 68.854 Q 680.453 69.476 679.818 69.641 A 2.063 2.063 0 0 1 679.3 69.7 L 675.2 69.7 A 2.015 2.015 0 0 1 674.646 69.631 Q 674.025 69.453 673.86 68.819 A 2.063 2.063 0 0 1 673.8 68.3 L 673.8 9.3 Q 670.7 11.9 668 14.2 Q 665.3 16.5 662.3 19.1 A 2.293 2.293 0 0 1 661.987 19.318 Q 661.161 19.79 660.454 19.072 A 2.504 2.504 0 0 1 660.3 18.9 L 658.3 16.5 A 2.065 2.065 0 0 1 658.025 15.764 A 1.96 1.96 0 0 1 658 15.45 Q 658 14.9 658.5 14.5 L 674 1.5 Q 674.331 1.169 674.937 1.112 A 2.814 2.814 0 0 1 675.2 1.1 L 677.9 1.1 A 19.718 19.718 0 0 1 678.626 1.113 Q 680.059 1.166 680.348 1.448 A 0.333 0.333 0 0 1 680.35 1.45 A 0.662 0.662 0 0 1 680.486 1.687 Q 680.7 2.26 680.7 3.9 Z M 293.786 47.061 A 89.678 89.678 0 0 0 294.5 35.2 A 58.454 58.454 0 0 0 294.499 34.87 Q 294.471 29.897 293.6 23.8 A 55.348 55.348 0 0 0 292.58 18.467 A 41.851 41.851 0 0 0 290.7 12.6 A 38.154 38.154 0 0 0 290.455 12.099 Q 284.582 0.3 274.2 0.3 A 16.088 16.088 0 0 0 260.995 6.934 A 28.724 28.724 0 0 0 257.6 12.6 A 53.126 53.126 0 0 0 254.557 23.86 A 71.594 71.594 0 0 0 253.7 35.2 A 109.511 109.511 0 0 0 253.76 38.861 Q 254.205 52.172 257.982 59.811 A 16.955 16.955 0 0 0 274.2 70.1 A 16.543 16.543 0 0 0 286.108 65.651 Q 292.053 59.976 293.786 47.061 Z M 287.7 35.2 A 115.211 115.211 0 0 0 287.703 34.392 Q 287.703 6.7 274.1 6.7 A 10.794 10.794 0 0 0 264.059 13.303 Q 260.497 20.222 260.497 34.392 A 115.211 115.211 0 0 0 260.5 35.2 A 116.021 116.021 0 0 0 260.497 36.012 Q 260.497 63.8 274.1 63.8 A 10.761 10.761 0 0 0 284.086 57.281 Q 287.703 50.34 287.703 36.012 A 116.021 116.021 0 0 0 287.7 35.2 Z M 358 46 L 378.9 46 L 378.9 8.4 L 358 46 Z M 458 46 L 478.9 46 L 478.9 8.4 L 458 46 Z M 345 31.7 L 345 36.1 A 12.504 12.504 0 0 1 344.995 36.48 Q 344.973 37.184 344.864 37.334 A 0.141 0.141 0 0 1 344.85 37.35 A 0.267 0.267 0 0 1 344.75 37.405 Q 344.497 37.493 343.725 37.5 A 14.944 14.944 0 0 1 343.6 37.5 L 304.6 37.5 A 12.504 12.504 0 0 1 304.221 37.495 Q 303.516 37.474 303.367 37.365 A 0.141 0.141 0 0 1 303.35 37.35 A 0.267 0.267 0 0 1 303.295 37.25 Q 303.207 36.997 303.201 36.226 A 14.944 14.944 0 0 1 303.2 36.1 L 303.2 31.7 A 12.504 12.504 0 0 1 303.205 31.321 Q 303.227 30.617 303.336 30.467 A 0.141 0.141 0 0 1 303.35 30.45 A 0.267 0.267 0 0 1 303.45 30.396 Q 303.703 30.307 304.475 30.301 A 14.944 14.944 0 0 1 304.6 30.3 L 343.6 30.3 A 12.504 12.504 0 0 1 343.979 30.306 Q 344.684 30.327 344.833 30.436 A 0.141 0.141 0 0 1 344.85 30.45 A 0.267 0.267 0 0 1 344.905 30.551 Q 344.993 30.804 345 31.575 A 14.944 14.944 0 0 1 345 31.7 Z M 595 31.7 L 595 36.1 A 12.504 12.504 0 0 1 594.995 36.48 Q 594.973 37.184 594.864 37.334 A 0.141 0.141 0 0 1 594.85 37.35 A 0.267 0.267 0 0 1 594.75 37.405 Q 594.497 37.493 593.725 37.5 A 14.944 14.944 0 0 1 593.6 37.5 L 554.6 37.5 A 12.504 12.504 0 0 1 554.221 37.495 Q 553.516 37.474 553.367 37.365 A 0.141 0.141 0 0 1 553.35 37.35 A 0.267 0.267 0 0 1 553.295 37.25 Q 553.207 36.997 553.201 36.226 A 14.944 14.944 0 0 1 553.2 36.1 L 553.2 31.7 A 12.504 12.504 0 0 1 553.205 31.321 Q 553.227 30.617 553.336 30.467 A 0.141 0.141 0 0 1 553.35 30.45 A 0.267 0.267 0 0 1 553.45 30.396 Q 553.703 30.307 554.475 30.301 A 14.944 14.944 0 0 1 554.6 30.3 L 593.6 30.3 A 12.504 12.504 0 0 1 593.979 30.306 Q 594.684 30.327 594.833 30.436 A 0.141 0.141 0 0 1 594.85 30.45 A 0.267 0.267 0 0 1 594.905 30.551 Q 594.993 30.804 595 31.575 A 14.944 14.944 0 0 1 595 31.7 Z M 410.4 22.4 A 22.328 22.328 0 0 0 410.397 22.792 Q 410.397 26.378 411.561 29.481 A 17.579 17.579 0 0 0 413.1 32.6 A 15.169 15.169 0 0 0 416.122 35.903 A 11.365 11.365 0 0 0 423.4 38.4 A 8.266 8.266 0 0 0 423.744 38.408 Q 425.007 38.408 426.338 38.026 A 12.856 12.856 0 0 0 428.45 37.2 A 12.271 12.271 0 0 0 432.921 33.439 A 14.239 14.239 0 0 0 432.95 33.4 Q 434.8 30.9 435.65 28 A 21.159 21.159 0 0 0 436.39 24.367 A 17.943 17.943 0 0 0 436.5 22.4 A 19.829 19.829 0 0 0 435.406 15.744 A 18.126 18.126 0 0 0 433.7 12.2 Q 429.7 6.1 423.4 6.1 A 11.278 11.278 0 0 0 414.681 10.127 A 17.501 17.501 0 0 0 413.1 12.2 A 20.233 20.233 0 0 0 410.5 20.562 A 24.579 24.579 0 0 0 410.4 22.4 Z M 89.6 51.6 Q 89.6 46.5 85.2 43 A 32.937 32.937 0 0 0 84.222 42.264 Q 83.113 41.458 81.572 40.445 A 107.277 107.277 0 0 0 81.35 40.3 A 35.66 35.66 0 0 0 79.153 38.984 Q 77.397 38.01 75.2 37 Q 74.083 36.399 72.966 36.831 A 3.232 3.232 0 0 0 72.6 37 A 37.491 37.491 0 0 0 69.04 38.68 A 29.484 29.484 0 0 0 66.6 40.15 Q 64 41.9 62.6 43 Q 60.8 44.6 59.7 46.85 Q 58.6 49.1 58.6 51.6 A 11.915 11.915 0 0 0 59.662 56.693 Q 60.788 59.11 63.107 60.93 A 14.862 14.862 0 0 0 63.6 61.3 A 16.915 16.915 0 0 0 71.334 64.23 A 21.871 21.871 0 0 0 74.1 64.4 A 21.157 21.157 0 0 0 78.872 63.889 A 15.344 15.344 0 0 0 84.6 61.3 A 12.277 12.277 0 0 0 87.974 57.745 Q 89.498 55.246 89.594 52.032 A 14.566 14.566 0 0 0 89.6 51.6 Z M 739.6 51.6 Q 739.6 46.5 735.2 43 A 32.937 32.937 0 0 0 734.222 42.264 Q 733.113 41.458 731.572 40.445 A 107.277 107.277 0 0 0 731.35 40.3 A 35.66 35.66 0 0 0 729.153 38.984 Q 727.397 38.01 725.2 37 Q 724.083 36.399 722.966 36.831 A 3.232 3.232 0 0 0 722.6 37 A 37.491 37.491 0 0 0 719.04 38.68 A 29.484 29.484 0 0 0 716.6 40.15 Q 714 41.9 712.6 43 Q 710.8 44.6 709.7 46.85 Q 708.6 49.1 708.6 51.6 A 11.915 11.915 0 0 0 709.662 56.693 Q 710.788 59.11 713.107 60.93 A 14.862 14.862 0 0 0 713.6 61.3 A 16.915 16.915 0 0 0 721.334 64.23 A 21.871 21.871 0 0 0 724.1 64.4 A 21.157 21.157 0 0 0 728.872 63.889 A 15.344 15.344 0 0 0 734.6 61.3 A 12.277 12.277 0 0 0 737.974 57.745 Q 739.498 55.246 739.594 52.032 A 14.566 14.566 0 0 0 739.6 51.6 Z M 789.6 51.6 Q 789.6 46.5 785.2 43 A 32.937 32.937 0 0 0 784.222 42.264 Q 783.113 41.458 781.572 40.445 A 107.277 107.277 0 0 0 781.35 40.3 A 35.66 35.66 0 0 0 779.153 38.984 Q 777.397 38.01 775.2 37 Q 774.083 36.399 772.966 36.831 A 3.232 3.232 0 0 0 772.6 37 A 37.491 37.491 0 0 0 769.04 38.68 A 29.484 29.484 0 0 0 766.6 40.15 Q 764 41.9 762.6 43 Q 760.8 44.6 759.7 46.85 Q 758.6 49.1 758.6 51.6 A 11.915 11.915 0 0 0 759.662 56.693 Q 760.788 59.11 763.107 60.93 A 14.862 14.862 0 0 0 763.6 61.3 A 16.915 16.915 0 0 0 771.334 64.23 A 21.871 21.871 0 0 0 774.1 64.4 A 21.157 21.157 0 0 0 778.872 63.889 A 15.344 15.344 0 0 0 784.6 61.3 A 12.277 12.277 0 0 0 787.974 57.745 Q 789.498 55.246 789.594 52.032 A 14.566 14.566 0 0 0 789.6 51.6 Z M 87.3 17.5 A 11.805 11.805 0 0 0 86.788 13.932 A 9.199 9.199 0 0 0 83.5 9.3 A 13.305 13.305 0 0 0 77.861 6.759 A 18.797 18.797 0 0 0 74.1 6.4 A 18.395 18.395 0 0 0 69.875 6.861 A 13.165 13.165 0 0 0 64.7 9.3 A 9.289 9.289 0 0 0 60.779 16.057 A 12.811 12.811 0 0 0 60.7 17.5 A 8.833 8.833 0 0 0 62.223 22.396 Q 63.046 23.66 64.315 24.859 A 18.037 18.037 0 0 0 64.8 25.3 A 57.447 57.447 0 0 0 65.934 26.168 Q 66.442 26.547 67.009 26.955 A 106.403 106.403 0 0 0 68.2 27.8 Q 70.2 29.2 72.8 30.6 A 5.921 5.921 0 0 0 73.178 30.819 Q 73.556 31.018 73.836 31.076 A 1.056 1.056 0 0 0 74.05 31.1 Q 74.393 31.1 74.996 30.81 A 7.71 7.71 0 0 0 75.4 30.6 A 71.312 71.312 0 0 0 79.202 27.943 Q 80.99 26.597 82.437 25.297 A 33.711 33.711 0 0 0 84.1 23.7 Q 86.002 21.739 86.773 19.919 A 6.176 6.176 0 0 0 87.3 17.5 Z M 737.3 17.5 A 11.805 11.805 0 0 0 736.788 13.932 A 9.199 9.199 0 0 0 733.5 9.3 A 13.305 13.305 0 0 0 727.861 6.759 A 18.797 18.797 0 0 0 724.1 6.4 A 18.395 18.395 0 0 0 719.875 6.861 A 13.165 13.165 0 0 0 714.7 9.3 A 9.289 9.289 0 0 0 710.779 16.057 A 12.811 12.811 0 0 0 710.7 17.5 A 8.833 8.833 0 0 0 712.223 22.396 Q 713.046 23.66 714.315 24.859 A 18.037 18.037 0 0 0 714.8 25.3 A 57.447 57.447 0 0 0 715.934 26.168 Q 716.442 26.547 717.009 26.955 A 106.403 106.403 0 0 0 718.2 27.8 Q 720.2 29.2 722.8 30.6 A 5.921 5.921 0 0 0 723.178 30.819 Q 723.556 31.018 723.836 31.076 A 1.056 1.056 0 0 0 724.05 31.1 Q 724.393 31.1 724.996 30.81 A 7.71 7.71 0 0 0 725.4 30.6 A 71.312 71.312 0 0 0 729.202 27.943 Q 730.99 26.597 732.437 25.297 A 33.711 33.711 0 0 0 734.1 23.7 Q 736.002 21.739 736.773 19.919 A 6.176 6.176 0 0 0 737.3 17.5 Z M 787.3 17.5 A 11.805 11.805 0 0 0 786.788 13.932 A 9.199 9.199 0 0 0 783.5 9.3 A 13.305 13.305 0 0 0 777.861 6.759 A 18.797 18.797 0 0 0 774.1 6.4 A 18.395 18.395 0 0 0 769.875 6.861 A 13.165 13.165 0 0 0 764.7 9.3 A 9.289 9.289 0 0 0 760.779 16.057 A 12.811 12.811 0 0 0 760.7 17.5 A 8.833 8.833 0 0 0 762.223 22.396 Q 763.046 23.66 764.315 24.859 A 18.037 18.037 0 0 0 764.8 25.3 A 57.447 57.447 0 0 0 765.934 26.168 Q 766.442 26.547 767.009 26.955 A 106.403 106.403 0 0 0 768.2 27.8 Q 770.2 29.2 772.8 30.6 A 5.921 5.921 0 0 0 773.178 30.819 Q 773.556 31.018 773.836 31.076 A 1.056 1.056 0 0 0 774.05 31.1 Q 774.393 31.1 774.996 30.81 A 7.71 7.71 0 0 0 775.4 30.6 A 71.312 71.312 0 0 0 779.202 27.943 Q 780.99 26.597 782.437 25.297 A 33.711 33.711 0 0 0 784.1 23.7 Q 786.002 21.739 786.773 19.919 A 6.176 6.176 0 0 0 787.3 17.5 Z M 276.4 45.6 L 271.8 45.6 A 1.459 1.459 0 0 1 271.29 45.519 Q 270.648 45.28 270.603 44.344 A 3.018 3.018 0 0 1 270.6 44.2 L 270.6 28.2 A 2.378 2.378 0 0 1 270.653 27.674 Q 270.819 26.945 271.506 26.824 A 1.697 1.697 0 0 1 271.8 26.8 L 276.4 26.8 A 1.459 1.459 0 0 1 276.91 26.882 Q 277.552 27.121 277.597 28.057 A 3.018 3.018 0 0 1 277.6 28.2 L 277.6 44.2 A 2.378 2.378 0 0 1 277.547 44.727 Q 277.381 45.455 276.694 45.576 A 1.697 1.697 0 0 1 276.4 45.6 Z" vector-effect="non-scaling-stroke"/></g></svg>